<svg xmlns="http://www.w3.org/2000/svg" width="1040" height="330" viewBox="0 0 1040 330">
<rect x="0" y="0" width="1040" height="330" fill="#ffffff"/>
<style>
text { font: 12px ui-monospace, SFMono-Regular, Menlo, Consolas, monospace; fill: #20242a; }
.axis { stroke: #4b5563; stroke-width: 1; }
.grid { stroke: #e5e7eb; stroke-width: 1; }
.bar { fill: #2563eb; }
.point { fill: #dc2626; stroke: #7f1d1d; stroke-width: 1; opacity: 0.85; }
</style>
<text x="24" y="26">correct jobs/sec per resident GB</text>
<line class="axis" x1="220" y1="292" x2="904" y2="292"/>
<line class="grid" x1="220.0" y1="54" x2="220.0" y2="292"/>
<text text-anchor="middle" x="220.0" y="310">0</text>
<line class="grid" x1="391.0" y1="54" x2="391.0" y2="292"/>
<text text-anchor="middle" x="391.0" y="310">0.005</text>
<line class="grid" x1="562.0" y1="54" x2="562.0" y2="292"/>
<text text-anchor="middle" x="562.0" y="310">0.01</text>
<line class="grid" x1="733.0" y1="54" x2="733.0" y2="292"/>
<text text-anchor="middle" x="733.0" y="310">0.015</text>
<line class="grid" x1="904.0" y1="54" x2="904.0" y2="292"/>
<text text-anchor="middle" x="904.0" y="310">0.02</text>
<text x="24" y="80">gemma4_e2b</text>
<rect class="bar" x="220" y="62" width="418.3" height="20" rx="2"/>
<text x="644.3" y="77">0.012</text>
<text x="24" y="124">qwen35_4b</text>
<rect class="bar" x="220" y="106" width="300.8" height="20" rx="2"/>
<text x="526.8" y="121">0.009</text>
<text x="24" y="168">ministral3_3b</text>
<rect class="bar" x="220" y="150" width="271.1" height="20" rx="2"/>
<text x="497.1" y="165">0.008</text>
<text x="24" y="212">phi4_mini</text>
<rect class="bar" x="220" y="194" width="246.9" height="20" rx="2"/>
<text x="472.9" y="209">0.007</text>
<text x="24" y="256">gemma4_e4b</text>
<rect class="bar" x="220" y="238" width="112.4" height="20" rx="2"/>
<text x="338.4" y="253">0.003</text>
</svg>
