<svg xmlns="http://www.w3.org/2000/svg" width="1040" height="330" viewBox="0 0 1040 330">
<rect x="0" y="0" width="1040" height="330" fill="#ffffff"/>
<style>
text { font: 12px ui-monospace, SFMono-Regular, Menlo, Consolas, monospace; fill: #20242a; }
.axis { stroke: #4b5563; stroke-width: 1; }
.grid { stroke: #e5e7eb; stroke-width: 1; }
.bar { fill: #2563eb; }
.point { fill: #dc2626; stroke: #7f1d1d; stroke-width: 1; opacity: 0.85; }
</style>
<text x="24" y="26">p95 generation latency ms, higher is slower</text>
<line class="axis" x1="220" y1="292" x2="904" y2="292"/>
<line class="grid" x1="220.0" y1="54" x2="220.0" y2="292"/>
<text text-anchor="middle" x="220.0" y="310">0</text>
<line class="grid" x1="391.0" y1="54" x2="391.0" y2="292"/>
<text text-anchor="middle" x="391.0" y="310">5000</text>
<line class="grid" x1="562.0" y1="54" x2="562.0" y2="292"/>
<text text-anchor="middle" x="562.0" y="310">10000</text>
<line class="grid" x1="733.0" y1="54" x2="733.0" y2="292"/>
<text text-anchor="middle" x="733.0" y="310">15000</text>
<line class="grid" x1="904.0" y1="54" x2="904.0" y2="292"/>
<text text-anchor="middle" x="904.0" y="310">20000</text>
<text x="24" y="80">gemma4_e4b</text>
<rect class="bar" x="220" y="62" width="356.8" height="20" rx="2"/>
<text x="582.8" y="77">10432</text>
<text x="24" y="124">phi4_mini</text>
<rect class="bar" x="220" y="106" width="313.8" height="20" rx="2"/>
<text x="539.8" y="121">9174</text>
<text x="24" y="168">qwen35_4b</text>
<rect class="bar" x="220" y="150" width="307.8" height="20" rx="2"/>
<text x="533.8" y="165">9000</text>
<text x="24" y="212">ministral3_3b</text>
<rect class="bar" x="220" y="194" width="228.0" height="20" rx="2"/>
<text x="454.0" y="209">6666</text>
<text x="24" y="256">gemma4_e2b</text>
<rect class="bar" x="220" y="238" width="109.4" height="20" rx="2"/>
<text x="335.4" y="253">3197</text>
</svg>
