<svg xmlns="http://www.w3.org/2000/svg" width="1040" height="330" viewBox="0 0 1040 330">
<rect x="0" y="0" width="1040" height="330" fill="#ffffff"/>
<style>
text { font: 12px ui-monospace, SFMono-Regular, Menlo, Consolas, monospace; fill: #20242a; }
.axis { stroke: #4b5563; stroke-width: 1; }
.grid { stroke: #e5e7eb; stroke-width: 1; }
.bar { fill: #2563eb; }
.point { fill: #dc2626; stroke: #7f1d1d; stroke-width: 1; opacity: 0.85; }
</style>
<text x="24" y="26">Overall Otlet fit, higher is better</text>
<line class="axis" x1="220" y1="292" x2="904" y2="292"/>
<line class="grid" x1="220.0" y1="54" x2="220.0" y2="292"/>
<text text-anchor="middle" x="220.0" y="310">0</text>
<line class="grid" x1="391.0" y1="54" x2="391.0" y2="292"/>
<text text-anchor="middle" x="391.0" y="310">0.25</text>
<line class="grid" x1="562.0" y1="54" x2="562.0" y2="292"/>
<text text-anchor="middle" x="562.0" y="310">0.5</text>
<line class="grid" x1="733.0" y1="54" x2="733.0" y2="292"/>
<text text-anchor="middle" x="733.0" y="310">0.75</text>
<line class="grid" x1="904.0" y1="54" x2="904.0" y2="292"/>
<text text-anchor="middle" x="904.0" y="310">1</text>
<text x="24" y="80">qwen35_4b</text>
<rect class="bar" x="220" y="62" width="648.8" height="20" rx="2"/>
<text x="874.8" y="77">0.948</text>
<text x="24" y="124">gemma4_e2b</text>
<rect class="bar" x="220" y="106" width="509.8" height="20" rx="2"/>
<text x="735.8" y="121">0.745</text>
<text x="24" y="168">gemma4_e4b</text>
<rect class="bar" x="220" y="150" width="461.5" height="20" rx="2"/>
<text x="687.5" y="165">0.675</text>
<text x="24" y="212">phi4_mini</text>
<rect class="bar" x="220" y="194" width="457.2" height="20" rx="2"/>
<text x="683.2" y="209">0.668</text>
<text x="24" y="256">ministral3_3b</text>
<rect class="bar" x="220" y="238" width="408.5" height="20" rx="2"/>
<text x="634.5" y="253">0.597</text>
</svg>
