<svg xmlns="http://www.w3.org/2000/svg" width="1040" height="374" viewBox="0 0 1040 374">
<rect x="0" y="0" width="1040" height="374" fill="#ffffff"/>
<style>
text { font: 12px ui-monospace, SFMono-Regular, Menlo, Consolas, monospace; fill: #20242a; }
.axis { stroke: #4b5563; stroke-width: 1; }
.grid { stroke: #e5e7eb; stroke-width: 1; }
.bar { fill: #2563eb; }
.point { fill: #dc2626; stroke: #7f1d1d; stroke-width: 1; opacity: 0.85; }
</style>
<text x="24" y="26">Overall Otlet fit, higher is better</text>
<line class="axis" x1="220" y1="336" x2="904" y2="336"/>
<line class="grid" x1="220.0" y1="54" x2="220.0" y2="336"/>
<text text-anchor="middle" x="220.0" y="354">0</text>
<line class="grid" x1="391.0" y1="54" x2="391.0" y2="336"/>
<text text-anchor="middle" x="391.0" y="354">0.25</text>
<line class="grid" x1="562.0" y1="54" x2="562.0" y2="336"/>
<text text-anchor="middle" x="562.0" y="354">0.5</text>
<line class="grid" x1="733.0" y1="54" x2="733.0" y2="336"/>
<text text-anchor="middle" x="733.0" y="354">0.75</text>
<line class="grid" x1="904.0" y1="54" x2="904.0" y2="336"/>
<text text-anchor="middle" x="904.0" y="354">1</text>
<text x="24" y="80">qwen35_4b</text>
<rect class="bar" x="220" y="62" width="649.1" height="20" rx="2"/>
<text x="875.1" y="77">0.949</text>
<text x="24" y="124">ministral3_3b</text>
<rect class="bar" x="220" y="106" width="638.6" height="20" rx="2"/>
<text x="864.6" y="121">0.934</text>
<text x="24" y="168">gemma4_e2b</text>
<rect class="bar" x="220" y="150" width="614.5" height="20" rx="2"/>
<text x="840.5" y="165">0.898</text>
<text x="24" y="212">glm_edge_4b</text>
<rect class="bar" x="220" y="194" width="592.8" height="20" rx="2"/>
<text x="818.8" y="209">0.867</text>
<text x="24" y="256">gemma4_e4b</text>
<rect class="bar" x="220" y="238" width="532.9" height="20" rx="2"/>
<text x="758.9" y="253">0.779</text>
<text x="24" y="300">phi4_mini</text>
<rect class="bar" x="220" y="282" width="279.0" height="20" rx="2"/>
<text x="505.0" y="297">0.408</text>
</svg>
