<svg xmlns="http://www.w3.org/2000/svg" width="920" height="535" viewBox="0 0 920 535">
<rect x="0" y="0" width="920" height="535" fill="#ffffff"/>
<style>
text { font: 12px ui-monospace, SFMono-Regular, Menlo, Consolas, monospace; fill: #20242a; }
.axis { stroke: #4b5563; stroke-width: 1; }
.grid { stroke: #e5e7eb; stroke-width: 1; }
.bar { fill: #2563eb; }
.point { fill: #dc2626; stroke: #7f1d1d; stroke-width: 1; opacity: 0.85; }
</style>
<text x="24" y="24">Active params vs overall fit</text>
<line class="axis" x1="72" y1="416" x2="872" y2="416"/>
<line class="axis" x1="72" y1="56" x2="72" y2="416"/>
<text x="72" y="458">active params B</text>
<text x="72" y="44">overall fit</text>
<text x="72" y="482">rank model score</text>
<line class="grid" x1="72.0" y1="56" x2="72.0" y2="416"/>
<line class="grid" x1="72" y1="56.0" x2="872" y2="56.0"/>
<text text-anchor="middle" x="72.0" y="434.0">0</text>
<text text-anchor="end" x="64" y="60.0">1</text>
<line class="grid" x1="272.0" y1="56" x2="272.0" y2="416"/>
<line class="grid" x1="72" y1="146.0" x2="872" y2="146.0"/>
<text text-anchor="middle" x="272.0" y="434.0">1.25</text>
<text text-anchor="end" x="64" y="150.0">0.75</text>
<line class="grid" x1="472.0" y1="56" x2="472.0" y2="416"/>
<line class="grid" x1="72" y1="236.0" x2="872" y2="236.0"/>
<text text-anchor="middle" x="472.0" y="434.0">2.5</text>
<text text-anchor="end" x="64" y="240.0">0.5</text>
<line class="grid" x1="672.0" y1="56" x2="672.0" y2="416"/>
<line class="grid" x1="72" y1="326.0" x2="872" y2="326.0"/>
<text text-anchor="middle" x="672.0" y="434.0">3.75</text>
<text text-anchor="end" x="64" y="330.0">0.25</text>
<line class="grid" x1="872.0" y1="56" x2="872.0" y2="416"/>
<line class="grid" x1="72" y1="416.0" x2="872" y2="416.0"/>
<text text-anchor="middle" x="872.0" y="434.0">5</text>
<text text-anchor="end" x="64" y="420.0">0</text>
<circle class="point" cx="712.0" cy="88.1" r="15.0"/>
<text style="fill:#ffffff" text-anchor="middle" x="712.0" y="92.1">1</text>
<text x="72" y="506">1. qwen35_4b 0.911</text>
</svg>
