<svg xmlns="http://www.w3.org/2000/svg" width="920" height="573" viewBox="0 0 920 573">
<rect x="0" y="0" width="920" height="573" fill="#ffffff"/>
<style>
text { font: 12px ui-monospace, SFMono-Regular, Menlo, Consolas, monospace; fill: #20242a; }
.axis { stroke: #4b5563; stroke-width: 1; }
.grid { stroke: #e5e7eb; stroke-width: 1; }
.bar { fill: #2563eb; }
.point { fill: #dc2626; stroke: #7f1d1d; stroke-width: 1; opacity: 0.85; }
</style>
<text x="24" y="24">Pareto: resident GB vs overall fit</text>
<line class="axis" x1="72" y1="416" x2="872" y2="416"/>
<line class="axis" x1="72" y1="56" x2="72" y2="416"/>
<text x="72" y="458">resident GB</text>
<text x="72" y="44">overall fit</text>
<text x="72" y="482">rank model score</text>
<line class="grid" x1="72.0" y1="56" x2="72.0" y2="416"/>
<line class="grid" x1="72" y1="56.0" x2="872" y2="56.0"/>
<text text-anchor="middle" x="72.0" y="434.0">0</text>
<text text-anchor="end" x="64" y="60.0">1</text>
<line class="grid" x1="272.0" y1="56" x2="272.0" y2="416"/>
<line class="grid" x1="72" y1="146.0" x2="872" y2="146.0"/>
<text text-anchor="middle" x="272.0" y="434.0">2.5</text>
<text text-anchor="end" x="64" y="150.0">0.75</text>
<line class="grid" x1="472.0" y1="56" x2="472.0" y2="416"/>
<line class="grid" x1="72" y1="236.0" x2="872" y2="236.0"/>
<text text-anchor="middle" x="472.0" y="434.0">5</text>
<text text-anchor="end" x="64" y="240.0">0.5</text>
<line class="grid" x1="672.0" y1="56" x2="672.0" y2="416"/>
<line class="grid" x1="72" y1="326.0" x2="872" y2="326.0"/>
<text text-anchor="middle" x="672.0" y="434.0">7.5</text>
<text text-anchor="end" x="64" y="330.0">0.25</text>
<line class="grid" x1="872.0" y1="56" x2="872.0" y2="416"/>
<line class="grid" x1="72" y1="416.0" x2="872" y2="416.0"/>
<text text-anchor="middle" x="872.0" y="434.0">10</text>
<text text-anchor="end" x="64" y="420.0">0</text>
<circle class="point" cx="330.2" cy="74.6" r="12.4"/>
<text style="fill:#ffffff" text-anchor="middle" x="330.2" y="78.6">1</text>
<text x="72" y="506">1. qwen35_4b 0.948</text>
<circle class="point" cx="357.4" cy="147.7" r="12.9"/>
<text style="fill:#ffffff" text-anchor="middle" x="357.4" y="151.7">2</text>
<text x="72" y="525">2. gemma4_e2b 0.745</text>
<circle class="point" cx="525.2" cy="173.1" r="15.0"/>
<text style="fill:#ffffff" text-anchor="middle" x="525.2" y="177.1">3</text>
<text x="72" y="544">3. gemma4_e4b 0.675</text>
<circle class="point" cx="342.3" cy="175.4" r="12.1"/>
<text style="fill:#ffffff" text-anchor="middle" x="342.3" y="179.4">4</text>
<text x="502" y="506">4. phi4_mini 0.668</text>
<circle class="point" cx="307.6" cy="201.0" r="11.6"/>
<text style="fill:#ffffff" text-anchor="middle" x="307.6" y="205.0">5</text>
<text x="502" y="525">5. ministral3_3b 0.597</text>
</svg>
